<?xml version="1.0" standalone="no"?>
<!DOCTYPE svg PUBLIC "-//W3C//DTD SVG 20010904//EN"
 "http://www.w3.org/TR/2001/REC-SVG-20010904/DTD/svg10.dtd">
<svg version="1.0" xmlns="http://www.w3.org/2000/svg"
 width="256.000000pt" height="256.000000pt" viewBox="0 0 256.000000 256.000000"
 preserveAspectRatio="xMidYMid meet">
<metadata>
Created by potrace 1.11, written by Peter Selinger 2001-2013
</metadata>
<g transform="translate(0.000000,256.000000) scale(0.100000,-0.100000)"
fill="#000000" stroke="none">
<path d="M1019 1978 c-17 -16 -47 -87 -98 -233 -40 -115 -142 -408 -227 -651
-85 -243 -154 -448 -154 -456 0 -35 20 -38 237 -38 195 0 215 2 232 19 15 15
35 59 66 149 4 10 53 12 221 10 l215 -3 30 -75 c16 -41 36 -81 46 -87 12 -10
75 -13 228 -13 214 0 235 3 235 38 0 11 -425 1240 -455 1314 -18 44 -41 48
-303 48 -244 0 -250 0 -273 -22z m331 -619 c28 -90 52 -170 55 -176 3 -10 -23
-13 -110 -13 l-113 0 25 83 c71 236 85 279 89 275 2 -2 26 -78 54 -169z"/>
</g>
</svg>
